<?xml version="1.0" encoding="UTF-8"?>
<svg width="325px" height="46px" viewBox="0 0 325 46" version="1.1" xmlns="http://www.w3.org/2000/svg" xmlns:xlink="http://www.w3.org/1999/xlink">
    <!-- Generator: Sketch 51.3 (57544) - http://www.bohemiancoding.com/sketch -->
    <title>a place to talk.</title>
    <desc>Created with Sketch.</desc>
    <defs></defs>
    <g id="Page-1" stroke="none" stroke-width="1" fill="none" fill-rule="evenodd">
        <g id="Artboard-Copy-2" transform="translate(-31.000000, -29.000000)" fill="#000000">
            <path d="M57.024,59.824 L56.544,63.808 C55.6479955,64.2560022 54.6080059,64.48 53.424,64.48 C50.3519846,64.48 48.512003,63.280012 47.904,60.88 C47.1999965,62.0640059 46.1120074,62.959997 44.64,63.568 C43.1679926,64.176003 41.4240101,64.48 39.408,64.48 C37.0719883,64.48 35.2480066,63.9520053 33.936,62.896 C32.6239934,61.8399947 31.968,60.3200099 31.968,58.336 C31.968,54.4319805 35.0879688,51.9040058 41.328,50.752 L47.088,49.648 L47.088,48.496 C47.088,47.2159936 46.7280036,46.2000038 46.008,45.448 C45.2879964,44.6959962 44.2880064,44.32 43.008,44.32 C41.5359926,44.32 40.3360046,44.6399968 39.408,45.28 C38.4799954,45.9200032 37.8400018,46.9599928 37.488,48.4 L32.256,46.192 C32.7680026,44.1119896 33.919991,42.4800059 35.712,41.296 C37.504009,40.1119941 39.8399856,39.52 42.72,39.52 C46.1440171,39.52 48.8159904,40.2639926 50.736,41.752 C52.6560096,43.2400074 53.616,45.4399854 53.616,48.352 L53.616,58.192 C53.616,58.8320032 53.7599986,59.2959986 54.048,59.584 C54.3360014,59.8720014 54.783997,60.016 55.392,60.016 C56.0640034,60.016 56.6079979,59.9520006 57.024,59.824 Z M45.336,58.984 C46.5040058,58.2959966 47.088,57.3600059 47.088,56.176 L47.088,53.68 L41.952,54.832 C40.8639946,55.0880013 40.0560026,55.4319978 39.528,55.864 C38.9999974,56.2960022 38.736,56.8959962 38.736,57.664 C38.736,58.4320038 38.9759976,59.015998 39.456,59.416 C39.9360024,59.816002 40.6079957,60.016 41.472,60.016 C42.880007,60.016 44.1679942,59.6720034 45.336,58.984 Z M93.189818,42.808 C95.0138271,45.000011 95.925818,48.0479805 95.925818,51.952 C95.925818,55.8880197 95.0138271,58.959989 93.189818,61.168 C91.3658089,63.376011 88.853834,64.48 85.653818,64.48 C83.9258094,64.48 82.4218244,64.0880039 81.141818,63.304 C79.8618116,62.5199961 78.8538217,61.4400069 78.117818,60.064 L78.117818,74.08 L71.541818,74.08 L71.541818,40 L77.349818,40 L77.589818,44.752 C78.2938215,43.151992 79.341811,41.8800047 80.733818,40.936 C82.125825,39.9919953 83.7658086,39.52 85.653818,39.52 C88.853834,39.52 91.3658089,40.615989 93.189818,42.808 Z M87.861818,57.52 C88.853823,56.2399936 89.349818,54.400012 89.349818,52 C89.349818,49.599988 88.853823,47.7600064 87.861818,46.48 C86.869813,45.1999936 85.477827,44.56 83.685818,44.56 C82.08581,44.56 80.789823,45.1119945 79.797818,46.216 C78.805813,47.3200055 78.2458186,48.8959898 78.117818,50.944 L78.117818,53.056 C78.2458186,55.0720101 78.805813,56.6399944 79.797818,57.76 C80.789823,58.8800056 82.08581,59.44 83.685818,59.44 C85.477827,59.44 86.869813,58.8000064 87.861818,57.52 Z M106.472727,56.368 C106.472727,57.5200058 106.640725,58.3199978 106.976727,58.768 C107.312729,59.2160022 107.928723,59.44 108.824727,59.44 C109.36873,59.44 109.840725,59.4000004 110.240727,59.32 C110.640729,59.2399996 111.112724,59.104001 111.656727,58.912 L111.080727,63.472 C110.568724,63.7920016 109.896731,64.0399991 109.064727,64.216 C108.232723,64.3920009 107.416731,64.48 106.616727,64.48 C104.280715,64.48 102.576732,63.9120057 101.504727,62.776 C100.432722,61.6399943 99.896727,59.8240125 99.896727,57.328 L99.896727,29.488 L106.472727,29.488 L106.472727,56.368 Z M137.179636,59.824 L136.699636,63.808 C135.803632,64.2560022 134.763642,64.48 133.579636,64.48 C130.507621,64.48 128.667639,63.280012 128.059636,60.88 C127.355632,62.0640059 126.267643,62.959997 124.795636,63.568 C123.323629,64.176003 121.579646,64.48 119.563636,64.48 C117.227624,64.48 115.403643,63.9520053 114.091636,62.896 C112.779629,61.8399947 112.123636,60.3200099 112.123636,58.336 C112.123636,54.4319805 115.243605,51.9040058 121.483636,50.752 L127.243636,49.648 L127.243636,48.496 C127.243636,47.2159936 126.88364,46.2000038 126.163636,45.448 C125.443632,44.6959962 124.443642,44.32 123.163636,44.32 C121.691629,44.32 120.491641,44.6399968 119.563636,45.28 C118.635631,45.9200032 117.995638,46.9599928 117.643636,48.4 L112.411636,46.192 C112.923639,44.1119896 114.075627,42.4800059 115.867636,41.296 C117.659645,40.1119941 119.995622,39.52 122.875636,39.52 C126.299653,39.52 128.971626,40.2639926 130.891636,41.752 C132.811646,43.2400074 133.771636,45.4399854 133.771636,48.352 L133.771636,58.192 C133.771636,58.8320032 133.915635,59.2959986 134.203636,59.584 C134.491637,59.8720014 134.939633,60.016 135.547636,60.016 C136.219639,60.016 136.763634,59.9520006 137.179636,59.824 Z M125.491636,58.984 C126.659642,58.2959966 127.243636,57.3600059 127.243636,56.176 L127.243636,53.68 L122.107636,54.832 C121.019631,55.0880013 120.211639,55.4319978 119.683636,55.864 C119.155633,56.2960022 118.891636,56.8959962 118.891636,57.664 C118.891636,58.4320038 119.131634,59.015998 119.611636,59.416 C120.091638,59.816002 120.763632,60.016 121.627636,60.016 C123.035643,60.016 124.32363,59.6720034 125.491636,58.984 Z M157.710545,41.44 C159.470554,42.7200064 160.670542,44.4319893 161.310545,46.576 L155.166545,48.784 C154.590542,45.8719854 153.038558,44.416 150.510545,44.416 C148.622536,44.416 147.17455,45.0639935 146.166545,46.36 C145.15854,47.6560065 144.654545,49.5519875 144.654545,52.048 C144.654545,54.5440125 145.16654,56.4239937 146.190545,57.688 C147.21455,58.9520063 148.638536,59.584 150.462545,59.584 C153.278559,59.584 154.942542,58.1600142 155.454545,55.312 L161.406545,57.232 C160.894542,59.440011 159.702554,61.1999934 157.830545,62.512 C155.958536,63.8240066 153.53456,64.48 150.558545,64.48 C146.590525,64.48 143.518556,63.384011 141.342545,61.192 C139.166534,58.999989 138.078545,55.9360197 138.078545,52 C138.078545,48.0639803 139.158534,45.000011 141.318545,42.808 C143.478556,40.615989 146.478526,39.52 150.318545,39.52 C153.486561,39.52 155.950536,40.1599936 157.710545,41.44 Z M187.121454,54.496 L170.129454,54.496 C170.801457,57.888017 172.801437,59.584 176.129454,59.584 C177.505461,59.584 178.64145,59.3280026 179.537454,58.816 C180.433458,58.3039974 181.057452,57.5680048 181.409454,56.608 L186.785454,58.576 C186.01745,60.4960096 184.729463,61.959995 182.921454,62.968 C181.113445,63.976005 178.849468,64.48 176.129454,64.48 C172.161434,64.48 169.089465,63.384011 166.913454,61.192 C164.737443,58.999989 163.649454,55.9360197 163.649454,52 C163.649454,48.0639803 164.705443,45.000011 166.817454,42.808 C168.929465,40.615989 171.905435,39.52 175.745454,39.52 C179.457473,39.52 182.313444,40.5919893 184.313454,42.736 C186.313464,44.8800107 187.313454,47.9359802 187.313454,51.904 C187.313454,52.8000045 187.249455,53.6639958 187.121454,54.496 Z M171.881454,45.76 C170.937449,46.6880046 170.337455,48.0639909 170.081454,49.888 L181.265454,49.888 C181.009453,48.095991 180.401459,46.7280047 179.441454,45.784 C178.481449,44.8399953 177.233462,44.368 175.697454,44.368 C174.097446,44.368 172.825459,44.8319954 171.881454,45.76 Z M219.927272,62.512 C219.159268,63.120003 218.191278,63.5999982 217.023272,63.952 C215.855266,64.3040018 214.631278,64.48 213.351272,64.48 C208.007245,64.48 205.335272,62.0640242 205.335272,57.232 L205.335272,44.896 L200.967272,44.896 L200.967272,40 L205.335272,40 L205.335272,34.48 L211.911272,32.656 L211.911272,40 L219.687272,40 L219.687272,44.896 L211.911272,44.896 L211.911272,56.176 C211.911272,58.384011 213.015261,59.488 215.223272,59.488 C216.631279,59.488 217.863267,59.0400045 218.919272,58.144 L219.927272,62.512 Z M242.402181,42.832 C244.562192,45.040011 245.642181,48.0959805 245.642181,52 C245.642181,55.9040195 244.562192,58.959989 242.402181,61.168 C240.24217,63.376011 237.2262,64.48 233.354181,64.48 C229.482162,64.48 226.466192,63.376011 224.306181,61.168 C222.14617,58.959989 221.066181,55.9040195 221.066181,52 C221.066181,48.0959805 222.14617,45.040011 224.306181,42.832 C226.466192,40.623989 229.482162,39.52 233.354181,39.52 C237.2262,39.52 240.24217,40.623989 242.402181,42.832 Z M229.106181,46.312 C228.130176,47.5760063 227.642181,49.4719874 227.642181,52 C227.642181,54.5280126 228.130176,56.4239937 229.106181,57.688 C230.082186,58.9520063 231.498172,59.584 233.354181,59.584 C235.21019,59.584 236.626176,58.9520063 237.602181,57.688 C238.578186,56.4239937 239.066181,54.5280126 239.066181,52 C239.066181,49.4719874 238.578186,47.5760063 237.602181,46.312 C236.626176,45.0479937 235.21019,44.416 233.354181,44.416 C231.498172,44.416 230.082186,45.0479937 229.106181,46.312 Z M278.399999,62.512 C277.631995,63.120003 276.664005,63.5999982 275.495999,63.952 C274.327993,64.3040018 273.104005,64.48 271.823999,64.48 C266.479972,64.48 263.807999,62.0640242 263.807999,57.232 L263.807999,44.896 L259.439999,44.896 L259.439999,40 L263.807999,40 L263.807999,34.48 L270.383999,32.656 L270.383999,40 L278.159999,40 L278.159999,44.896 L270.383999,44.896 L270.383999,56.176 C270.383999,58.384011 271.487988,59.488 273.695999,59.488 C275.104006,59.488 276.335994,59.0400045 277.391999,58.144 L278.399999,62.512 Z M304.594908,59.824 L304.114908,63.808 C303.218904,64.2560022 302.178914,64.48 300.994908,64.48 C297.922893,64.48 296.082911,63.280012 295.474908,60.88 C294.770904,62.0640059 293.682915,62.959997 292.210908,63.568 C290.738901,64.176003 288.994918,64.48 286.978908,64.48 C284.642896,64.48 282.818915,63.9520053 281.506908,62.896 C280.194901,61.8399947 279.538908,60.3200099 279.538908,58.336 C279.538908,54.4319805 282.658877,51.9040058 288.898908,50.752 L294.658908,49.648 L294.658908,48.496 C294.658908,47.2159936 294.298912,46.2000038 293.578908,45.448 C292.858904,44.6959962 291.858914,44.32 290.578908,44.32 C289.106901,44.32 287.906913,44.6399968 286.978908,45.28 C286.050903,45.9200032 285.41091,46.9599928 285.058908,48.4 L279.826908,46.192 C280.338911,44.1119896 281.490899,42.4800059 283.282908,41.296 C285.074917,40.1119941 287.410894,39.52 290.290908,39.52 C293.714925,39.52 296.386898,40.2639926 298.306908,41.752 C300.226918,43.2400074 301.186908,45.4399854 301.186908,48.352 L301.186908,58.192 C301.186908,58.8320032 301.330907,59.2959986 301.618908,59.584 C301.906909,59.8720014 302.354905,60.016 302.962908,60.016 C303.634911,60.016 304.178906,59.9520006 304.594908,59.824 Z M292.906908,58.984 C294.074914,58.2959966 294.658908,57.3600059 294.658908,56.176 L294.658908,53.68 L289.522908,54.832 C288.434903,55.0880013 287.626911,55.4319978 287.098908,55.864 C286.570905,56.2960022 286.306908,56.8959962 286.306908,57.664 C286.306908,58.4320038 286.546906,59.015998 287.026908,59.416 C287.50691,59.816002 288.178904,60.016 289.042908,60.016 C290.450915,60.016 291.738902,59.6720034 292.906908,58.984 Z M313.317817,56.368 C313.317817,57.5200058 313.485815,58.3199978 313.821817,58.768 C314.157819,59.2160022 314.773813,59.44 315.669817,59.44 C316.21382,59.44 316.685815,59.4000004 317.085817,59.32 C317.485819,59.2399996 317.957814,59.104001 318.501817,58.912 L317.925817,63.472 C317.413814,63.7920016 316.741821,64.0399991 315.909817,64.216 C315.077813,64.3920009 314.261821,64.48 313.461817,64.48 C311.125805,64.48 309.421822,63.9120057 308.349817,62.776 C307.277812,61.6399943 306.741817,59.8240125 306.741817,57.328 L306.741817,29.488 L313.317817,29.488 L313.317817,56.368 Z M331.352726,53.392 L326.984726,58.048 L326.984726,64 L320.408726,64 L320.408726,29.488 L326.984726,29.488 L326.984726,50.944 L337.400726,40 L344.840726,40 L335.816726,49.408 L345.416726,64 L337.976726,64 L331.352726,53.392 Z M354.307635,57.712 C355.059639,58.4160035 355.435635,59.3599941 355.435635,60.544 C355.435635,61.7280059 355.059639,62.6719965 354.307635,63.376 C353.555631,64.0800035 352.539641,64.432 351.259635,64.432 C349.979629,64.432 348.963639,64.0880034 348.211635,63.4 C347.459631,62.7119966 347.083635,61.7600061 347.083635,60.544 C347.083635,59.3279939 347.459631,58.3760034 348.211635,57.688 C348.963639,56.9999966 349.979629,56.656 351.259635,56.656 C352.539641,56.656 353.555631,57.0079965 354.307635,57.712 Z" id="a-place-to-talk."></path>
        </g>
    </g>
</svg>